<?xml version="1.0" encoding="UTF-8"?>
<!-- Sprite: <svg class="as-icon"><use href="assets/icons.svg#as-meter"></use></svg> -->
<svg xmlns="http://www.w3.org/2000/svg" xmlns:xlink="http://www.w3.org/1999/xlink">
  <symbol id="as-meter" viewBox="0 0 24 24" fill="none">
    <rect x="5.5" y="2.5" width="13" height="19" rx="2.5" stroke="currentColor" stroke-width="1.75"/>
    <path d="M8 7h8M8 11h8M8 15h5" stroke="currentColor" stroke-width="1.75" stroke-linecap="round"/>
    <circle cx="12" cy="19" r="1.25" fill="currentColor"/>
  </symbol>
  <symbol id="as-pipe" viewBox="0 0 24 24" fill="none">
    <path d="M3 14h18" stroke="currentColor" stroke-width="2.25" stroke-linecap="round"/>
    <path d="M6 10h12" stroke="currentColor" stroke-width="2" stroke-linecap="round"/>
    <circle cx="7" cy="10" r="2.5" fill="currentColor" opacity="0.25" stroke="currentColor" stroke-width="1.5"/>
    <circle cx="17" cy="10" r="2.5" fill="currentColor" opacity="0.25" stroke="currentColor" stroke-width="1.5"/>
    <path d="M8 18l2-4M14 18l2-4" stroke="currentColor" stroke-width="1.5" stroke-linecap="round" opacity="0.7"/>
  </symbol>
  <symbol id="as-droplet-pin" viewBox="0 0 24 24" fill="none">
    <path d="M12 21s6-4.8 6-10a6 6 0 0 0-12 0c0 5.2 6 10 6 10z" stroke="currentColor" stroke-width="1.75" stroke-linejoin="round" fill="currentColor" fill-opacity="0.12"/>
    <text x="12" y="14.5" text-anchor="middle" font-size="6.5" font-weight="700" fill="currentColor" font-family="system-ui,sans-serif">01</text>
  </symbol>
  <symbol id="as-user" viewBox="0 0 24 24" fill="none">
    <circle cx="12" cy="9" r="3.5" stroke="currentColor" stroke-width="1.75"/>
    <path d="M5.5 20.5v-1a5 5 0 0 1 5-5h3a5 5 0 0 1 5 5v1" stroke="currentColor" stroke-width="1.75" stroke-linecap="round"/>
  </symbol>
  <symbol id="as-manhole" viewBox="0 0 24 24" fill="none">
    <ellipse cx="12" cy="15" rx="7" ry="3.5" stroke="currentColor" stroke-width="1.75" fill="currentColor" fill-opacity="0.12"/>
    <rect x="9" y="6" width="6" height="5" rx="1" stroke="currentColor" stroke-width="1.5" transform="rotate(-12 12 8.5)"/>
    <path d="M5 15h14" stroke="currentColor" stroke-width="1" stroke-dasharray="2 2" opacity="0.5"/>
  </symbol>
  <symbol id="as-report" viewBox="0 0 24 24" fill="none">
    <path d="M7 3.5h7l3 3V20.5H7V3.5z" stroke="currentColor" stroke-width="1.75" stroke-linejoin="round"/>
    <path d="M14 3.5v3.5H17" stroke="currentColor" stroke-width="1.75" stroke-linejoin="round"/>
    <path d="M9.5 12h5M9.5 15.5h5M9.5 9h3" stroke="currentColor" stroke-width="1.5" stroke-linecap="round"/>
    <path d="M9.5 17.5l1.5 1.5 3-3.5" stroke="currentColor" stroke-width="1.5" stroke-linecap="round" stroke-linejoin="round"/>
  </symbol>
  <symbol id="as-droplet" viewBox="0 0 24 24" fill="none">
    <path d="M12 21.5c3.5-2.8 6-6.4 6-10.2a6 6 0 0 0-12 0c0 3.8 2.5 7.4 6 10.2z" stroke="currentColor" stroke-width="1.75" stroke-linejoin="round" fill="currentColor" fill-opacity="0.1"/>
  </symbol>
  <symbol id="as-phone" viewBox="0 0 24 24" fill="none">
    <path d="M6.5 3.5h3.5l1.5 4.5-2 1.2a11 11 0 0 0 5.3 5.3l1.2-2L22 14.5V18a2 2 0 0 1-2 2A17 17 0 0 1 3 5.5a2 2 0 0 1 2-2z" stroke="currentColor" stroke-width="1.75" stroke-linejoin="round"/>
  </symbol>
  <symbol id="as-news" viewBox="0 0 24 24" fill="none">
    <path d="M4 19.5A2.5 2.5 0 0 0 6.5 22H20" stroke="currentColor" stroke-width="1.75" stroke-linecap="round"/>
    <path d="M6.5 2H20v20H6.5A2.5 2.5 0 0 1 4 19.5v-15A2.5 2.5 0 0 1 6.5 2z" stroke="currentColor" stroke-width="1.75" stroke-linejoin="round"/>
    <path d="M8 7h8M8 11h8M8 15h5" stroke="currentColor" stroke-width="1.5" stroke-linecap="round"/>
  </symbol>
  <symbol id="as-megaphone" viewBox="0 0 24 24" fill="none">
    <path d="M6.5 10v5M6.5 15.5H4a1.5 1.5 0 0 1-1.5-1.5v-3A1.5 1.5 0 0 1 4 9.5h2.5" stroke="currentColor" stroke-width="1.75" stroke-linecap="round"/>
    <path d="M6.5 10l8-3v10l-8-3V10z" stroke="currentColor" stroke-width="1.75" stroke-linejoin="round"/>
    <path d="M16.5 8.5a4 4 0 0 1 0 7" stroke="currentColor" stroke-width="1.75" stroke-linecap="round"/>
  </symbol>
  <symbol id="as-home" viewBox="0 0 24 24" fill="none">
    <path d="M3 9.5L12 3l9 6.5V20a1 1 0 0 1-1 1h-5v-7H10v7H4a1 1 0 0 1-1-1V9.5z" stroke="currentColor" stroke-width="1.75" stroke-linejoin="round"/>
  </symbol>
  <symbol id="as-droplets" viewBox="0 0 24 24" fill="none">
    <path d="M7 22a4 4 0 0 1 0-8c1 3 1 5 0 8z" stroke="currentColor" stroke-width="1.5" stroke-linejoin="round" fill="currentColor" fill-opacity="0.08"/>
    <path d="M14 22a5 5 0 0 1 0-10c1.2 4 1.2 6.5 0 10z" stroke="currentColor" stroke-width="1.5" stroke-linejoin="round" fill="currentColor" fill-opacity="0.08"/>
  </symbol>
  <symbol id="as-calendar" viewBox="0 0 24 24" fill="none">
    <rect x="3" y="4" width="18" height="18" rx="2" stroke="currentColor" stroke-width="1.75"/>
    <path d="M16 2v4M8 2v4M3 10h18" stroke="currentColor" stroke-width="1.75" stroke-linecap="round"/>
  </symbol>
</svg>
